<svg height="685pt" viewBox="0 0 840.5 685.4" width="841pt" xmlns="http://www.w3.org/2000/svg" xmlns:xlink="http://www.w3.org/1999/xlink"><g transform="translate(4 681.4)"><path d="m-4 4v-685.4h840.5v685.4z" fill="#fff"/><a xlink:href="https://github.com/Radical-AI/torch-sim/blob/main/torch_sim/autobatching.py" xlink:title="View source on GitHub"><path d="m305.01-624h-67.02v36h67.02z" fill="#2daee5" stroke="#000"/><text fill="#fff" font-family="Helvetica,sans-Serif" font-size="10" text-anchor="middle" x="271.5" y="-607.75">autobatching</text><text fill="#fff" font-family="Helvetica,sans-Serif" font-size="10" text-anchor="middle" x="271.5" y="-596.5">(821 lines)</text></a><a xlink:href="https://github.com/Radical-AI/torch-sim/blob/main/torch_sim/models/interface.py" xlink:title="View source on GitHub"><path d="m530.26-372h-83.52v36h83.52z" fill="#e52d2d" stroke="#000"/><text fill="#fff" font-family="Helvetica,sans-Serif" font-size="10" text-anchor="middle" x="488.5" y="-355.75">models.interface</text><text fill="#fff" font-family="Helvetica,sans-Serif" font-size="10" text-anchor="middle" x="488.5" y="-344.5">(250 lines)</text></a><path d="m305.18-596.25c14.95 5.86 31.91 14.67 43.7 27.25 49.89 53.21 18.6 93.28 61.86 152 10.55 14.32 25.07 27.33 38.64 37.76" fill="none" stroke="#000"/><path d="m451.39-382.1 5.96 8.76-10.12-3.14z" stroke="#000"/><a xlink:href="https://github.com/Radical-AI/torch-sim/blob/main/torch_sim/state.py" xlink:title="View source on GitHub"><path d="m822.76-484h-56.52v36h56.52z" fill="#e52d2d" stroke="#000"/><text fill="#fff" font-family="Helvetica,sans-Serif" font-size="10" text-anchor="middle" x="794.5" y="-467.75">state</text><text fill="#fff" font-family="Helvetica,sans-Serif" font-size="10" text-anchor="middle" x="794.5" y="-456.5">(687 lines)</text></a><path d="m305.31-596.23c42.19 11.31 117.7 27.28 182.19 18.23" fill="none" stroke="#000"/><a xlink:href="https://github.com/Radical-AI/torch-sim/blob/main/torch_sim/elastic.py" xlink:title="View source on GitHub"><path d="m516.76-526h-56.52v36h56.52z" fill="#2daee5" stroke="#000"/><text fill="#fff" font-family="Helvetica,sans-Serif" font-size="10" text-anchor="middle" x="488.5" y="-509.75">elastic</text><text fill="#fff" font-family="Helvetica,sans-Serif" font-size="10" text-anchor="middle" x="488.5" y="-498.5">(887 lines)</text></a><path d="m517.22-514.57c45.43-9.49 137.96-23.42 211.04.57 13.99 4.59 27.44 13.45 38.47 22.33" fill="none" stroke="#000"/><path d="m768.87-494.44 5.35 9.15-9.88-3.82z" stroke="#000"/><a xlink:href="https://github.com/Radical-AI/torch-sim/blob/main/torch_sim/integrators.py" xlink:title="View source on GitHub"><path d="m517.13-253h-57.26v36h57.26z" fill="#2daee5" stroke="#000"/><text fill="#fff" font-family="Helvetica,sans-Serif" font-size="10" text-anchor="middle" x="488.5" y="-236.75">integrators</text><text fill="#fff" font-family="Helvetica,sans-Serif" font-size="10" text-anchor="middle" x="488.5" y="-225.5">(953 lines)</text></a><path d="m517.52-241.42c14.84-3.89 33.17-9.48 48.74-16.58 51.34-23.43 58.12-40.2 107.24-68" fill="none" stroke="#000"/><path d="m675.5-326c46.93-26.56 83.48-79.39 102.8-112.02" fill="none" stroke="#000"/><path d="m775.18-439.61 8.02-6.92-1.96 10.41z" stroke="#000"/><a xlink:href="https://github.com/Radical-AI/torch-sim/blob/main/torch_sim/transforms.py" xlink:title="View source on GitHub"><path d="m703.51-253h-58.02v36h58.02z" fill="#e5a72d" stroke="#000"/><text fill="#fff" font-family="Helvetica,sans-Serif" font-size="10" text-anchor="middle" x="674.5" y="-236.75">transforms</text><text fill="#fff" font-family="Helvetica,sans-Serif" font-size="10" text-anchor="middle" x="674.5" y="-225.5">(891 lines)</text></a><path d="m517.45-235h116.58" fill="none" stroke="#000"/><path d="m633.78-238.5 10 3.5-10 3.5z" stroke="#000"/><a xlink:href="https://github.com/Radical-AI/torch-sim/blob/main/torch_sim/io.py" xlink:title="View source on GitHub"><path d="m702.76-414h-56.52v36h56.52z" fill="#2daee5" stroke="#000"/><text fill="#fff" font-family="Helvetica,sans-Serif" font-size="10" text-anchor="middle" x="674.5" y="-397.75">io</text><text fill="#fff" font-family="Helvetica,sans-Serif" font-size="10" text-anchor="middle" x="674.5" y="-386.5">(307 lines)</text></a><path d="m712.92-418.2c13.86-8.22 29.56-17.53 43.39-25.74" fill="none" stroke="#000"/><path d="m714.85-415.28-10.38 2.1 6.81-8.12z" stroke="#000"/><path d="m754.32-446.83 10.39-2.09-6.82 8.11z" stroke="#000"/><a xlink:href="https://github.com/Radical-AI/torch-sim/blob/main/torch_sim/math.py" xlink:title="View source on GitHub"><path d="m702.76-512h-56.52v36h56.52z" fill="#2daee5" stroke="#000"/><text fill="#fff" font-family="Helvetica,sans-Serif" font-size="10" text-anchor="middle" x="674.5" y="-495.75">math</text><text fill="#fff" font-family="Helvetica,sans-Serif" font-size="10" text-anchor="middle" x="674.5" y="-484.5">(732 lines)</text></a><a xlink:href="https://github.com/Radical-AI/torch-sim/blob/main/torch_sim/models/fairchem.py" xlink:title="View source on GitHub"><path d="m313.26-344h-83.52v36h83.52z" fill="#2daee5" stroke="#000"/><text fill="#fff" font-family="Helvetica,sans-Serif" font-size="10" text-anchor="middle" x="271.5" y="-327.75">models.fairchem</text><text fill="#fff" font-family="Helvetica,sans-Serif" font-size="10" text-anchor="middle" x="271.5" y="-316.5">(315 lines)</text></a><path d="m313.7-331.37c34.59-4.5 84.2-10.96 121.57-15.83" fill="none" stroke="#000"/><path d="m434.57-350.64 10.37 2.18-9.47 4.77z" stroke="#000"/><path d="m313.75-324.82c43.3.96 113.35 1.74 173.75-1.18" fill="none" stroke="#000"/><a xlink:href="https://github.com/Radical-AI/torch-sim/blob/main/torch_sim/models/graphpes.py" xlink:title="View source on GitHub"><path d="m314.38-302h-85.76v36h85.76z" fill="#2daee5" stroke="#000"/><text fill="#fff" font-family="Helvetica,sans-Serif" font-size="10" text-anchor="middle" x="271.5" y="-285.75">models.graphpes</text><text fill="#fff" font-family="Helvetica,sans-Serif" font-size="10" text-anchor="middle" x="271.5" y="-274.5">(144 lines)</text></a><path d="m314.77-295.33c11.17-3.22 23.16-6.89 34.11-10.67 28.03-9.67 33.88-15.18 61.86-25 7.94-2.79 16.41-5.54 24.73-8.12" fill="none" stroke="#000"/><path d="m434.21-342.4 10.58.44-8.54 6.26z" stroke="#000"/><a xlink:href="https://github.com/Radical-AI/torch-sim/blob/main/torch_sim/neighbors.py" xlink:title="View source on GitHub"><path d="m516.76-309h-56.52v36h56.52z" fill="#e5a72d" stroke="#000"/><text fill="#fff" font-family="Helvetica,sans-Serif" font-size="10" text-anchor="middle" x="488.5" y="-292.75">neighbors</text><text fill="#fff" font-family="Helvetica,sans-Serif" font-size="10" text-anchor="middle" x="488.5" y="-281.5">(621 lines)</text></a><path d="m314.72-285.37c39.01-1.27 96.48-3.15 134.27-4.38" fill="none" stroke="#000"/><path d="m448.42-293.23 10.11 3.17-9.89 3.83z" stroke="#000"/><path d="m314.48-295.95c43.02-11.35 112.05-27.11 173.02-30.05" fill="none" stroke="#000"/><path d="m489.5-326c81.68-3.94 112.83 40.28 184 0" fill="none" stroke="#000"/><path d="m530.34-363.32c31.16-7.12 73.82-16.85 104.45-23.84" fill="none" stroke="#000"/><path d="m633.89-390.55 10.53 1.19-8.97 5.64z" stroke="#000"/><path d="m530.58-341.84c46.58 12.78 119.16 29.29 142.92 15.84" fill="none" stroke="#000"/><a xlink:href="https://github.com/Radical-AI/torch-sim/blob/main/torch_sim/models/lennard_jones.py" xlink:title="View source on GitHub"><path d="m131.51-120h-106.02v36h106.02z" fill="#2de5a3" stroke="#000"/><text fill="#fff" font-family="Helvetica,sans-Serif" font-size="10" text-anchor="middle" x="78.5" y="-103.75">models.lennard_jones</text><text fill="#fff" font-family="Helvetica,sans-Serif" font-size="10" text-anchor="middle" x="78.5" y="-92.5">(251 lines)</text></a><path d="m131.83-118.71c2.05-1.6 3.96-3.36 5.68-5.29 67.83-75.95-20.43-155.42 56.61-222 25.82-22.32 45.29 6.1 76.38-8" fill="none" stroke="#000"/><path d="m272.5-214c33.83-4.57 44.58 4.4 76.38-8 31.92-12.45 31.24-30.63 61.86-46 11.9-5.97 25.63-10.7 38.16-14.27" fill="none" stroke="#000"/><path d="m447.95-285.64 10.57.81-8.76 5.96z" stroke="#000"/><path d="m131.9-120.05c1.95-1.24 3.83-2.56 5.61-3.95 34.86-27.31 18.52-59.4 56.61-82 29.35-17.42 42.55-3.43 76.38-8" fill="none" stroke="#000"/><path d="m131.78-118.33c2.09-1.71 4.02-3.59 5.73-5.67 95.62-116.3-57.07-235.28 56.61-334 24.62-21.38 260.79-6.95 293.38-8" fill="none" stroke="#000"/><path d="m131.88-99.75c38.43 1.1 91.85 1.5 138.62-2.25" fill="none" stroke="#000"/><a xlink:href="https://github.com/Radical-AI/torch-sim/blob/main/torch_sim/unbatched/models/lennard_jones.py" xlink:title="View source on GitHub"><path d="m348.51-260h-154.02v36h154.02z" fill="#2de5a3" stroke="#000"/><text fill="#fff" font-family="Helvetica,sans-Serif" font-size="10" text-anchor="middle" x="271.5" y="-243.75">unbatched.models.lennard_jones</text><text fill="#fff" font-family="Helvetica,sans-Serif" font-size="10" text-anchor="middle" x="271.5" y="-232.5">(188 lines)</text></a><path d="m131.75-119.72c2.01-1.33 3.94-2.76 5.76-4.28 35.01-29.37 20.37-60.1 54.51-92.21" fill="none" stroke="#000"/><path d="m189.6-218.75 9.89-3.8-5.36 9.14z" stroke="#000"/><a xlink:href="https://github.com/Radical-AI/torch-sim/blob/main/torch_sim/models/mace.py" xlink:title="View source on GitHub"><path d="m306.51-400h-70.02v36h70.02z" fill="#2de5a3" stroke="#000"/><text fill="#fff" font-family="Helvetica,sans-Serif" font-size="10" text-anchor="middle" x="271.5" y="-383.75">models.mace</text><text fill="#fff" font-family="Helvetica,sans-Serif" font-size="10" text-anchor="middle" x="271.5" y="-372.5">(277 lines)</text></a><path d="m306.57-377.56c34.59 4.5 88.62 11.54 128.64 16.75" fill="none" stroke="#000"/><path d="m435.65-364.28 9.47 4.76-10.37 2.18z" stroke="#000"/><path d="m306.98-366.29c27.86 12.57 68.15 30.48 103.76 45.29 12.57 5.23 26.4 10.71 38.81 15.54" fill="none" stroke="#000"/><path d="m450.55-308.82 8.07 6.87-10.59-.35z" stroke="#000"/><path d="m489.5-578c10.15-1.42 174.64-18.18 184-14" fill="none" stroke="#000"/><path d="m306.72-391.41c14.56-5.46 30.78-13.67 42.16-25.59 50.68-53.03 3.26-108.89 61.86-153 27.4-20.63 42.79-3.24 76.76-8" fill="none" stroke="#000"/><a xlink:href="https://github.com/Radical-AI/torch-sim/blob/main/torch_sim/models/mattersim.py" xlink:title="View source on GitHub"><path d="m316.26-666h-89.52v36h89.52z" fill="#2daee5" stroke="#000"/><text fill="#fff" font-family="Helvetica,sans-Serif" font-size="10" text-anchor="middle" x="271.5" y="-649.75">models.mattersim</text><text fill="#fff" font-family="Helvetica,sans-Serif" font-size="10" text-anchor="middle" x="271.5" y="-638.5">(114 lines)</text></a><path d="m316.48-643.18c11.8 3.23 23.69 8.53 32.4 17.18 68.75 68.25 8.32 128.27 61.86 209 9.68 14.59 23.76 27.52 37.23 37.81" fill="none" stroke="#000"/><path d="m449.89-382.12 6.02 8.73-10.14-3.07z" stroke="#000"/><path d="m316.41-636.31c10.7 3.11 22.06 6.64 32.47 10.31 28.13 9.92 32.97 18.6 61.86 26 33.23 8.52 42.51 6.23 76.76 8" fill="none" stroke="#000"/><path d="m489.5-592c40.83 2.11 146.66-16.67 184 0" fill="none" stroke="#000"/><a xlink:href="https://github.com/Radical-AI/torch-sim/blob/main/torch_sim/units.py" xlink:title="View source on GitHub"><path d="m821.5-652h-54v36h54z" fill="#2daee5" stroke="#000"/><text fill="#fff" font-family="Helvetica,sans-Serif" font-size="10" text-anchor="middle" x="794.5" y="-635.75">units</text><text fill="#fff" font-family="Helvetica,sans-Serif" font-size="10" text-anchor="middle" x="794.5" y="-624.5">(98 lines)</text></a><path d="m489.5-592c34.25 1.77 44.76 4.36 76.76-8 28.02-10.82 26.72-28.53 54.48-40 21.92-9.06 29.05-7.61 52.76-8" fill="none" stroke="#000"/><path d="m675.5-648c27.17-.45 57.63 3.27 80.79 6.99" fill="none" stroke="#000"/><path d="m756.59-644.51 9.28 5.11-10.45 1.79z" stroke="#000"/><a xlink:href="https://github.com/Radical-AI/torch-sim/blob/main/torch_sim/models/morse.py" xlink:title="View source on GitHub"><path d="m115.01-36h-73.02v36h73.02z" fill="#2de5a3" stroke="#000"/><text fill="#fff" font-family="Helvetica,sans-Serif" font-size="10" text-anchor="middle" x="78.5" y="-19.75">models.morse</text><text fill="#fff" font-family="Helvetica,sans-Serif" font-size="10" text-anchor="middle" x="78.5" y="-8.5">(258 lines)</text></a><path d="m115.32-25.16c8.35-3.25 16.46-7.98 22.19-14.84 88.64-106.17-44.96-212.12 56.61-306 25.06-23.17 45.29 6.1 76.38-8" fill="none" stroke="#000"/><path d="m272.5-354c14.38-6.52 103.69-4.42 162.59-2.25" fill="none" stroke="#000"/><path d="m435.06-359.75 9.86 3.88-10.13 3.11z" stroke="#000"/><path d="m115.25-26.88c7.96-3.19 15.91-7.45 22.26-13.12 41.01-36.63 11.22-78.96 56.61-110 28.17-19.27 47.3 9.88 76.38-8" fill="none" stroke="#000"/><path d="m272.5-158c29.08-17.88 47.05 9.45 76.38-8 41.72-24.81 24.68-58.8 61.86-90 11.22-9.42 25.39-16.82 38.49-22.34" fill="none" stroke="#000"/><path d="m447.89-281.58 10.59-.4-8.02 6.92z" stroke="#000"/><path d="m272.5-32c63.34 1.15 232.94-2.83 293.76-31 30.37-14.07 24.43-37.25 54.48-52 21.29-10.45 35.2 7.94 52.76-8" fill="none" stroke="#000"/><path d="m675.5-123c95.38-82.76 113.74-246.31 117.21-313.31" fill="none" stroke="#000"/><path d="m789.21-436.31 3.93-9.84 3.06 10.14z" stroke="#000"/><path d="m115.35-21.73c38.35-3.72 100.97-9.07 155.15-10.27" fill="none" stroke="#000"/><path d="m115.3-24.45c22.57-3.94 52.34-8.9 78.82-12.55 169.1-23.29 227.05-5.07 372.14-95 33.32-20.65 64.84-53.04 84.97-75.98" fill="none" stroke="#000"/><path d="m648.46-210.12 9.18-5.3-3.87 9.86z" stroke="#000"/><a xlink:href="https://github.com/Radical-AI/torch-sim/blob/main/torch_sim/unbatched/models/morse.py" xlink:title="View source on GitHub"><path d="m332.01-92h-121.02v36h121.02z" fill="#2de5a3" stroke="#000"/><text fill="#fff" font-family="Helvetica,sans-Serif" font-size="10" text-anchor="middle" x="271.5" y="-75.75">unbatched.models.morse</text><text fill="#fff" font-family="Helvetica,sans-Serif" font-size="10" text-anchor="middle" x="271.5" y="-64.5">(190 lines)</text></a><path d="m115.43-28.53c23.76-6.97 55.72-16.34 84.45-24.76" fill="none" stroke="#000"/><path d="m198.67-56.59 10.58.55-8.61 6.17z" stroke="#000"/><a xlink:href="https://github.com/Radical-AI/torch-sim/blob/main/torch_sim/models/orb.py" xlink:title="View source on GitHub"><path d="m301.26-554h-59.52v36h59.52z" fill="#2daee5" stroke="#000"/><text fill="#fff" font-family="Helvetica,sans-Serif" font-size="10" text-anchor="middle" x="271.5" y="-537.75">models.orb</text><text fill="#fff" font-family="Helvetica,sans-Serif" font-size="10" text-anchor="middle" x="271.5" y="-526.5">(341 lines)</text></a><path d="m301.5-532.22c38.03 4.95 104.88 13.66 147.23 19.17" fill="none" stroke="#000"/><path d="m449.02-516.54 9.46 4.76-10.37 2.18z" stroke="#000"/><path d="m301.55-532.66c15.28 2.93 33.63 8.42 47.33 18.66 40.96 30.61 27.93 58.75 61.86 97 12.29 13.86 27.79 27.18 41.64 37.98" fill="none" stroke="#000"/><path d="m454.15-382.07 5.83 8.84-10.07-3.27z" stroke="#000"/><path d="m301.65-544.41c27.81-7.72 70.98-18.95 109.09-25.59 33.79-5.89 42.79-3.24 76.76-8" fill="none" stroke="#000"/><a xlink:href="https://github.com/Radical-AI/torch-sim/blob/main/torch_sim/models/sevennet.py" xlink:title="View source on GitHub"><path d="m314.38-456h-85.76v36h85.76z" fill="#2de5a3" stroke="#000"/><text fill="#fff" font-family="Helvetica,sans-Serif" font-size="10" text-anchor="middle" x="271.5" y="-439.75">models.sevennet</text><text fill="#fff" font-family="Helvetica,sans-Serif" font-size="10" text-anchor="middle" x="271.5" y="-428.5">(191 lines)</text></a><path d="m314.72-451.75c39.18-12.75 96.98-31.57 134.75-43.87" fill="none" stroke="#000"/><path d="m448.01-498.82 10.59.23-8.43 6.42z" stroke="#000"/><path d="m314.83-426.26c11.17 3.37 23.14 7.23 34.05 11.26 30.49 11.25 63.85 25.86 90.2 37.95" fill="none" stroke="#000"/><path d="m440.2-380.38 7.61 7.37-10.55-1.02z" stroke="#000"/><path d="m314.69-423.13c11.76 5.29 24.08 12 34.19 20.13 35.58 28.6 25.48 54.43 61.86 82 11.4 8.64 25.61 15.11 38.69 19.78" fill="none" stroke="#000"/><path d="m450.23-304.64 8.4 6.46-10.59.19z" stroke="#000"/><path d="m314.73-445.97c43.21-7.57 112.39-18.08 172.77-20.03" fill="none" stroke="#000"/><path d="m489.5-466c81.74-2.63 102.23 1.03 184 0" fill="none" stroke="#000"/><a xlink:href="https://github.com/Radical-AI/torch-sim/blob/main/torch_sim/models/soft_sphere.py" xlink:title="View source on GitHub"><path d="m127.01-78h-97.02v36h97.02z" fill="#2de5a3" stroke="#000"/><text fill="#fff" font-family="Helvetica,sans-Serif" font-size="10" text-anchor="middle" x="78.5" y="-61.75">models.soft_sphere</text><text fill="#fff" font-family="Helvetica,sans-Serif" font-size="10" text-anchor="middle" x="78.5" y="-50.5">(616 lines)</text></a><path d="m127.43-73.4c3.76-2.41 7.2-5.25 10.08-8.6 78.2-91.02-32.66-183.8 56.61-264 25.39-22.81 45.29 6.1 76.38-8" fill="none" stroke="#000"/><path d="m127.4-75.83c3.54-1.87 6.95-3.92 10.11-6.17 32.01-22.83 21.92-49.48 56.61-68 30.11-16.08 47.3 9.88 76.38-8" fill="none" stroke="#000"/><path d="m127.5-49.5c38.45 7.57 93.91 16.61 143 17.5" fill="none" stroke="#000"/><path d="m127.25-76.3c20.38-6.4 44.57-13.27 66.87-17.7 33.47-6.66 42.35-5.27 76.38-8" fill="none" stroke="#000"/><path d="m272.5-102c34.03-2.73 42.89-1.43 76.38-8 28.1-5.51 33.8-12.31 61.86-18 33.66-6.82 43.24-1.51 76.76-9" fill="none" stroke="#000"/><a xlink:href="https://github.com/Radical-AI/torch-sim/blob/main/torch_sim/unbatched/models/soft_sphere.py" xlink:title="View source on GitHub"><path d="m344.01-204h-145.02v36h145.02z" fill="#31e52d" stroke="#000"/><text fill="#fff" font-family="Helvetica,sans-Serif" font-size="10" text-anchor="middle" x="271.5" y="-187.75">unbatched.models.soft_sphere</text><text fill="#fff" font-family="Helvetica,sans-Serif" font-size="10" text-anchor="middle" x="271.5" y="-176.5">(373 lines)</text></a><path d="m127.32-75.38c3.6-1.97 7.05-4.17 10.19-6.62 31.94-24.88 22.86-50.84 54.64-78.48" fill="none" stroke="#000"/><path d="m189.94-163.19 10.03-3.42-5.71 8.93z" stroke="#000"/><a xlink:href="https://github.com/Radical-AI/torch-sim/blob/main/torch_sim/monte_carlo.py" xlink:title="View source on GitHub"><path d="m706.88-113h-64.76v36h64.76z" fill="#2d35e5" stroke="#000"/><text fill="#fff" font-family="Helvetica,sans-Serif" font-size="10" text-anchor="middle" x="674.5" y="-96.75">monte_carlo</text><text fill="#fff" font-family="Helvetica,sans-Serif" font-size="10" text-anchor="middle" x="674.5" y="-85.5">(208 lines)</text></a><path d="m707.32-103.06c7.88-3.42 15.59-8.22 20.94-14.94 39.36-49.42 57.57-243.84 63.22-318.55" fill="none" stroke="#000"/><path d="m787.98-436.64 4.22-9.71 2.76 10.22z" stroke="#000"/><path d="m517.11-300.59c16.19-6.84 35.98-17.49 49.15-32.41 43.63-49.44 8.68-90.56 54.48-138 4.25-4.4 9.49-8.02 15-10.96" fill="none" stroke="#000"/><path d="m633.86-484.96 10.55-.99-7.62 7.35z" stroke="#000"/><path d="m517.05-282.62c31.12 9.47 82.01 24.96 117.26 35.69" fill="none" stroke="#000"/><path d="m635.16-250.33 8.55 6.26-10.58.44z" stroke="#000"/><a xlink:href="https://github.com/Radical-AI/torch-sim/blob/main/torch_sim/optimizers.py" xlink:title="View source on GitHub"><path d="m516.76-568h-56.52v36h56.52z" fill="#2daee5" stroke="#000"/><text fill="#fff" font-family="Helvetica,sans-Serif" font-size="10" text-anchor="middle" x="488.5" y="-551.75">optimizers</text><text fill="#fff" font-family="Helvetica,sans-Serif" font-size="10" text-anchor="middle" x="488.5" y="-540.5">(961 lines)</text></a><path d="m516.91-542.34c14.67 4.14 33.03 9.41 49.35 14.34 22.88 6.9 48.38 14.97 68.78 21.52" fill="none" stroke="#000"/><path d="m635.9-509.88 8.45 6.4-10.59.27z" stroke="#000"/><path d="m517.05-558.2c47.77-13.94 142.24-40.15 156.45-33.8" fill="none" stroke="#000"/><path d="m675.5-592c23.05 10.29 33.41 4.8 52.76 21 24.58 20.57 42.68 52.88 53.5 76.22" fill="none" stroke="#000"/><path d="m784.88-496.38.86 10.56-7.26-7.72z" stroke="#000"/><a xlink:href="https://github.com/Radical-AI/torch-sim/blob/main/torch_sim/properties/correlations.py" xlink:title="View source on GitHub"><path d="m728.26-568h-107.52v36h107.52z" fill="#2d35e5" stroke="#000"/><text fill="#fff" font-family="Helvetica,sans-Serif" font-size="10" text-anchor="middle" x="674.5" y="-551.75">properties.correlations</text><text fill="#fff" font-family="Helvetica,sans-Serif" font-size="10" text-anchor="middle" x="674.5" y="-540.5">(349 lines)</text></a><path d="m720.67-531.57c2.62 1.45 5.17 2.98 7.59 4.57 14.81 9.73 29.39 22.93 41.01 34.56" fill="none" stroke="#000"/><path d="m771.64-495.02 4.46 9.61-9.48-4.73z" stroke="#000"/><a xlink:href="https://github.com/Radical-AI/torch-sim/blob/main/torch_sim/quantities.py" xlink:title="View source on GitHub"><path d="m702.76-638h-56.52v36h56.52z" fill="#2de5a3" stroke="#000"/><text fill="#fff" font-family="Helvetica,sans-Serif" font-size="10" text-anchor="middle" x="674.5" y="-621.75">quantities</text><text fill="#fff" font-family="Helvetica,sans-Serif" font-size="10" text-anchor="middle" x="674.5" y="-610.5">(114 lines)</text></a><path d="m703.14-612.13c8.82 3.53 18.09 8.45 25.12 15.13 29.75 28.28 47.94 73.03 57.3 102.21" fill="none" stroke="#000"/><path d="m788.82-496.1-.43 10.58-6.26-8.54z" stroke="#000"/><path d="m703.17-623.28c15.71-1.87 35.61-4.23 52.73-6.26" fill="none" stroke="#000"/><path d="m755.38-633 10.34 2.3-9.52 4.65z" stroke="#000"/><a xlink:href="https://github.com/Radical-AI/torch-sim/blob/main/torch_sim/runners.py" xlink:title="View source on GitHub"><path d="m106.76-624h-56.52v36h56.52z" fill="#31e52d" stroke="#000"/><text fill="#fff" font-family="Helvetica,sans-Serif" font-size="10" text-anchor="middle" x="78.5" y="-607.75">runners</text><text fill="#fff" font-family="Helvetica,sans-Serif" font-size="10" text-anchor="middle" x="78.5" y="-596.5">(368 lines)</text></a><path d="m106.87-606h119.45" fill="none" stroke="#000"/><path d="m226.23-609.5 10 3.5-10 3.5z" stroke="#000"/><path d="m84.63-587.64c11.92 38.87 45.49 129.23 109.49 169.64 29.23 18.46 121.01 8.52 154.76 16 29.37 6.51 61.15 17.23 86.87 26.89" fill="none" stroke="#000"/><path d="m436.86-378.43 8.09 6.84-10.59-.3z" stroke="#000"/><path d="m489.5-648c33.97 4.75 42.82 3.07 76.76 8 22.82 3.31 48.2 8 68.54 12" fill="none" stroke="#000"/><path d="m635.22-631.48 9.12 5.39-10.49 1.47z" stroke="#000"/><path d="m489.5-648c33.97 4.75 44.76-4.36 76.76 8 28.02 10.82 26.72 28.53 54.48 40 21.92 9.06 31.1-1.67 52.76 8" fill="none" stroke="#000"/><path d="m272.5-676c28.76-2.26 187.45 24.15 215 28" fill="none" stroke="#000"/><a xlink:href="https://github.com/Radical-AI/torch-sim/blob/main/torch_sim/trajectory.py" xlink:title="View source on GitHub"><path d="m516.76-638h-56.52v36h56.52z" fill="#2daee5" stroke="#000"/><text fill="#fff" font-family="Helvetica,sans-Serif" font-size="10" text-anchor="middle" x="488.5" y="-621.75">trajectory</text><text fill="#fff" font-family="Helvetica,sans-Serif" font-size="10" text-anchor="middle" x="488.5" y="-610.5">(762 lines)</text></a><path d="m272.5-676c34.03-2.67 43.26-.25 76.38 8 28.78 7.17 33.88 15.18 61.86 25 12.36 4.34 26.02 8.6 38.34 12.25" fill="none" stroke="#000"/><path d="m449.87-634.17 8.62 6.16-10.58.57z" stroke="#000"/><path d="m105.95-624.22c22.42-14.45 55.96-33.81 88.17-43.78 32.6-10.09 42.35-5.33 76.38-8" fill="none" stroke="#000"/><path d="m489.5-648c80.99 11.32 102.23 1.36 184 0" fill="none" stroke="#000"/><path d="m517.15-615.78c26.56 4.05 67.82 10.34 103.59 15.78 23.45 3.56 31.1-1.67 52.76 8" fill="none" stroke="#000"/><path d="m342.32-260.31c2.26-1.16 4.45-2.39 6.56-3.69 34.49-21.28 27.48-45.53 61.86-67 7.55-4.71 16.12-8.51 24.73-11.55" fill="none" stroke="#000"/><path d="m434.29-345.85 10.59.3-8.46 6.37z" stroke="#000"/><path d="m348.91-259.41c33.79-7.71 72.07-16.43 99.83-22.76" fill="none" stroke="#000"/><path d="m447.94-285.57 10.53 1.19-8.98 5.63z" stroke="#000"/><path d="m313.47-223.58c11.5 5.27 23.98 11.08 35.41 16.58 62.19 29.94 71.27 85.05 138.62 70" fill="none" stroke="#000"/><a xlink:href="https://github.com/Radical-AI/torch-sim/blob/main/torch_sim/unbatched/unbatched_integrators.py" xlink:title="View source on GitHub"><path d="m566.26-456h-155.52v36h155.52z" fill="#2de5a3" stroke="#000"/><text fill="#fff" font-family="Helvetica,sans-Serif" font-size="10" text-anchor="middle" x="488.5" y="-439.75">unbatched.unbatched_integrators</text><text fill="#fff" font-family="Helvetica,sans-Serif" font-size="10" text-anchor="middle" x="488.5" y="-428.5">(1723 lines)</text></a><path d="m343.82-260.36c1.75-1.14 3.44-2.35 5.06-3.64 44.22-35.13 25.65-67.66 61.86-111 11.79-14.11 27.07-27.4 40.9-38.1" fill="none" stroke="#000"/><path d="m449.16-415.61 10.09-3.22-5.88 8.81z" stroke="#000"/><a xlink:href="https://github.com/Radical-AI/torch-sim/blob/main/torch_sim/unbatched/models/mace.py" xlink:title="View source on GitHub"><path d="m137.51-372h-118.02v36h118.02z" fill="#2de5a3" stroke="#000"/><text fill="#fff" font-family="Helvetica,sans-Serif" font-size="10" text-anchor="middle" x="78.5" y="-355.75">unbatched.models.mace</text><text fill="#fff" font-family="Helvetica,sans-Serif" font-size="10" text-anchor="middle" x="78.5" y="-344.5">(199 lines)</text></a><path d="m137.56-348.81c47.37 3.28 110.07 5.19 132.94-5.19" fill="none" stroke="#000"/><path d="m137.84-362.55c28-4.11 61.05-8.95 87.16-12.78" fill="none" stroke="#000"/><path d="m224.19-378.75 10.41 2.01-9.39 4.92z" stroke="#000"/><path d="m89.29-335.64c16.94 29.7 54.75 87.57 104.83 113.64 30.27 15.76 42.55 12.57 76.38 8" fill="none" stroke="#000"/><path d="m82.89-372.32c9.1-43.26 38.46-151.48 111.23-196.68 55.4-34.42 228.79.06 293.38-9" fill="none" stroke="#000"/><path d="m328.27-92.43c7.72-4.45 14.93-9.91 20.61-16.57 66.49-77.91-9.86-148.88 61.86-222 6.79-6.92 15.58-11.78 24.77-15.19" fill="none" stroke="#000"/><path d="m434.35-349.49 10.59.38-8.52 6.3z" stroke="#000"/><path d="m326.38-92.43c8.24-4.5 16.11-9.97 22.5-16.57 49.33-50.9 12.48-96.15 61.86-147 10.55-10.86 25.09-18.66 38.68-24.09" fill="none" stroke="#000"/><path d="m448.01-283.31 10.6-.13-8.2 6.71z" stroke="#000"/><path d="m489.5-123c20.42-.99 168.86 13.74 184 0" fill="none" stroke="#000"/><path d="m332.4-90.13c52.66-13.72 125.42-31.44 155.1-32.87" fill="none" stroke="#000"/><path d="m489.5-137c56.98-12.74 115.22-48.34 150.5-72.93" fill="none" stroke="#000"/><path d="m637.91-212.74 10.18-2.93-6.13 8.64z" stroke="#000"/><path d="m332.47-90.98c5.59-1.91 11.14-3.92 16.41-6.02 28.58-11.36 32.4-22.19 61.86-31 32.91-9.84 43.24-1.51 76.76-9" fill="none" stroke="#000"/><a xlink:href="https://github.com/Radical-AI/torch-sim/blob/main/torch_sim/unbatched/models/particle_life.py" xlink:title="View source on GitHub"><path d="m343.26-148h-143.52v36h143.52z" fill="#2de5a3" stroke="#000"/><text fill="#fff" font-family="Helvetica,sans-Serif" font-size="10" text-anchor="middle" x="271.5" y="-131.75">unbatched.models.particle_life</text><text fill="#fff" font-family="Helvetica,sans-Serif" font-size="10" text-anchor="middle" x="271.5" y="-120.5">(151 lines)</text></a><g stroke="#000"><path d="m327.01-148.42c8.06-4.49 15.72-9.96 21.87-16.58 53.61-57.67 4.39-112.18 61.86-166 7.01-6.56 15.81-11.26 24.94-14.62" fill="none"/><path d="m434.42-348.89 10.59.37-8.51 6.31z"/><path d="m342.35-148.48c2.27-1.4 4.46-2.9 6.53-4.52 42.15-32.79 22.03-67.43 61.86-103 11.12-9.93 25.53-17.5 38.86-23.01" fill="none"/><path d="m447.97-282.13 10.59-.32-8.08 6.85z"/><path d="m343.7-124.8c41.88 2.34 95.87 4.11 143.8 1.8" fill="none"/><path d="m343.54-129.47c51.84-.16 117.49-1.61 143.96-7.53" fill="none"/><path d="m324.57-204.44c8.72-4.55 17.23-10.04 24.31-16.56 41.27-37.99 18.07-74.96 61.86-110 7.26-5.81 15.96-10.15 24.85-13.4" fill="none"/><path d="m434.42-347.7 10.59.32-8.47 6.35z"/><path d="m340.3-204.49c2.96-1.41 5.83-2.91 8.58-4.51 32.84-19.11 29.01-39.91 61.86-59 11.72-6.81 25.64-11.77 38.39-15.3" fill="none"/><path d="m447.92-286.61 10.56.94-8.83 5.85z"/><path d="m338.89-204.42c3.43-1.44 6.78-2.96 9.99-4.58 30.61-15.39 29.93-33.58 61.86-46 64.76-25.19 88.9 3.75 155.52-16 51.36-15.22 60.62-28.62 107.24-55" fill="none"/><path d="m309-167.64c42.75 19.18 115.73 44.67 178.5 30.64" fill="none"/><path d="m540.75-456.45c9.29-4.99 18.3-11.12 25.51-18.55 41.37-42.6 12.3-80.2 54.48-122 4.35-4.31 9.63-7.87 15.16-10.8" fill="none"/><path d="m634.04-610.8 10.55-.98-7.64 7.35z"/><path d="m675.5-466c26.34-.33 55.99-.33 78.98-.25" fill="none"/><path d="m754.34-469.75 9.99 3.55-10.02 3.45z"/><path d="m566.55-454.58c32.79-5.79 71.57-10.98 106.95-11.42" fill="none"/><path d="m514.59-419.76c15.64 11.92 35.73 28.28 51.67 44.76 34.8 35.99 68.9 83.12 88.99 112.48" fill="none"/><path d="m657.94-264.78 2.72 10.24-8.51-6.32z"/></g><a xlink:href="https://github.com/Radical-AI/torch-sim/blob/main/torch_sim/unbatched/unbatched_optimizers.py" xlink:title="View source on GitHub"><path d="m348.88-512h-154.76v36h154.76z" fill="#2de5a3" stroke="#000"/><text fill="#fff" font-family="Helvetica,sans-Serif" font-size="10" text-anchor="middle" x="271.5" y="-495.75">unbatched.unbatched_optimizers</text><text fill="#fff" font-family="Helvetica,sans-Serif" font-size="10" text-anchor="middle" x="271.5" y="-484.5">(854 lines)</text></a><path d="m489.5-480c50.13 1.62 107.76-3.98 144.97-8.57" fill="none" stroke="#000"/><path d="m633.93-492.03 10.37 2.2-9.48 4.74z" stroke="#000"/><path d="m489.5-480c81.97 2.64 101.99 15.03 184 14" fill="none" stroke="#000"/><path d="m349.31-487.77c40.99 3.01 92.3 6.29 138.19 7.77" fill="none" stroke="#000"/><path d="m343.49-475.51c19.91 5.19 41.71 10.87 62.19 16.2" fill="none" stroke="#000"/><path d="m406.32-462.76 8.79 5.91-10.55.86z" stroke="#000"/><a xlink:href="https://github.com/Radical-AI/torch-sim/blob/main/torch_sim/workflows/a2c.py" xlink:title="View source on GitHub"><path d="m115.76-162h-74.52v36h74.52z" fill="#2de5a3" stroke="#000"/><text fill="#fff" font-family="Helvetica,sans-Serif" font-size="10" text-anchor="middle" x="78.5" y="-145.75">workflows.a2c</text><text fill="#fff" font-family="Helvetica,sans-Serif" font-size="10" text-anchor="middle" x="78.5" y="-134.5">(703 lines)</text></a><path d="m85.48-162.42c10.88-33.7 34.39-107.62 52.03-170.58 27.59-98.46-20.72-156.09 56.61-223 25.81-22.33 47.64 10.42 76.38-8" fill="none" stroke="#000"/><path d="m272.5-564c28.24-18.1 122.43-3.97 176.31 6.12" fill="none" stroke="#000"/><path d="m449.32-561.35 9.17 5.32-10.48 1.56z" stroke="#000"/><path d="m272.5-564c10.08-6.46 203.15-12.33 215-14" fill="none" stroke="#000"/><path d="m116.23-131.22c22.28 7.27 51.42 15.96 77.89 21.22 33.47 6.66 42.35 10.73 76.38 8" fill="none" stroke="#000"/><path d="m115.88-152c20.36-4.48 46.64-10.26 71.74-15.77" fill="none" stroke="#000"/><path d="m186.66-171.15 10.52 1.27-9.02 5.57z" stroke="#000"/><path d="m84.89-162.43c17.94-60.85 76.02-254.12 107.59-304.02" fill="none" stroke="#000"/><path d="m189.71-468.59 8.89-5.76-3.36 10.05z" stroke="#000"/></g></svg>
